<svg width="99" height="94" viewBox="0 0 99 94" fill="none" xmlns="http://www.w3.org/2000/svg">
<path d="M67.9113 0.867924C84.3227 0.867924 99 12.4503 99.0001 28.9998V73.9998C99.0001 88.4998 91.5001 110.5 29.0001 73.9998C-12.7405 49.6232 -3.99975 0.867924 26.1876 0.867924H67.9113ZM26.2755 24.8181V41.821C26.2755 43.7301 26.7276 45.401 27.631 46.8328C28.5344 48.2644 29.8002 49.3803 31.4279 50.1814C33.0556 50.974 34.9559 51.3708 37.129 51.3709C39.2938 51.3709 41.1907 50.974 42.8185 50.1814C44.4461 49.3803 45.712 48.2644 46.6154 46.8328C47.5273 45.401 47.9826 43.7301 47.9826 41.821V24.8181H42.4474V41.3484C42.4473 42.3454 42.2255 43.2321 41.7824 44.0076C41.3477 44.7829 40.7298 45.3926 39.9288 45.8357C39.1363 46.2788 38.2028 46.4998 37.129 46.4998C36.0638 46.4997 35.1303 46.2788 34.3292 45.8357C33.5282 45.3926 32.9062 44.783 32.463 44.0076C32.0284 43.2321 31.8107 42.3454 31.8107 41.3484V24.8181H26.2755ZM63.7619 31.1082C62.3045 31.1082 61.0639 31.4446 60.0412 32.1179C59.0187 32.7826 58.2902 33.6861 57.8556 34.8279H57.6251V31.364H52.4347V50.9998H57.881V39.6482C57.8895 38.8045 58.0468 38.0836 58.3537 37.4871C58.669 36.882 59.1044 36.4215 59.6583 36.1062C60.2206 35.7911 60.8681 35.6336 61.6007 35.6335C62.6916 35.6335 63.5489 35.9742 64.171 36.656C64.7932 37.3293 65.0994 38.2669 65.091 39.4685V50.9998H70.5372V38.4968C70.5372 36.9714 70.256 35.6587 69.6935 34.5593C69.131 33.4515 68.3424 32.5992 67.3283 32.0027C66.3141 31.4062 65.1253 31.1082 63.7619 31.1082ZM74.8292 31.364V50.9998H80.2755V31.364H74.8292ZM77.5656 23.322C76.756 23.322 76.0611 23.595 75.4816 24.1404C74.9106 24.6773 74.6251 25.321 74.6251 26.071C74.6251 26.8296 74.9106 27.4817 75.4816 28.0271C76.0611 28.564 76.7559 28.8328 77.5656 28.8328C78.375 28.8327 79.065 28.5638 79.6359 28.0271C80.2154 27.4817 80.506 26.8296 80.506 26.071C80.506 25.321 80.2154 24.6773 79.6359 24.1404C79.065 23.5952 78.375 23.3221 77.5656 23.322Z" fill="var(--ui-color-primary-500)"/>
</svg>
